<mxfile host="app.diagrams.net" modified="2023-03-23T15:17:28.665Z" agent="5.0 (Macintosh)" etag="k_Wo2aiLXmDLoKAanTLT" compressed="false" version="21.0.10" type="device">
  <diagram name="Page-1" id="0zy6owzmRjl1fqoIziSZ">
    <mxGraphModel dx="3622" dy="3222" grid="1" gridSize="10" guides="1" tooltips="1" connect="1" arrows="1" fold="1" page="1" pageScale="1" pageWidth="2500" pageHeight="2500" math="0" shadow="0">
      <root>
        <mxCell id="0" />
        <mxCell id="1" parent="0" />
        <mxCell id="dy52wDB2Z1GQdfB4RwDG-1" value="" style="html=1;points=[];perimeter=orthogonalPerimeter;outlineConnect=0;targetShapes=umlLifeline;portConstraint=eastwest;newEdgeStyle={&quot;edgeStyle&quot;:&quot;elbowEdgeStyle&quot;,&quot;elbow&quot;:&quot;vertical&quot;,&quot;curved&quot;:0,&quot;rounded&quot;:0};fontSize=16;strokeColor=#007FFF;" parent="1" vertex="1">
          <mxGeometry x="-2350" y="-2180" width="10" height="400" as="geometry" />
        </mxCell>
        <mxCell id="dy52wDB2Z1GQdfB4RwDG-2" value="&lt;font style=&quot;font-size: 13px;&quot;&gt;Student&lt;/font&gt;" style="shape=umlActor;verticalLabelPosition=bottom;verticalAlign=top;html=1;fontSize=16;" parent="1" vertex="1">
          <mxGeometry x="-2360" y="-2270" width="30" height="60" as="geometry" />
        </mxCell>
        <mxCell id="dy52wDB2Z1GQdfB4RwDG-7" value="&lt;font style=&quot;font-size: 13px;&quot;&gt;viewDatabase(databaseID)&lt;/font&gt;" style="html=1;verticalAlign=bottom;endArrow=block;edgeStyle=elbowEdgeStyle;elbow=vertical;curved=0;rounded=0;" parent="1" source="dy52wDB2Z1GQdfB4RwDG-1" target="dy52wDB2Z1GQdfB4RwDG-4" edge="1">
          <mxGeometry x="0.0047" width="80" relative="1" as="geometry">
            <mxPoint x="-2332" y="-2144" as="sourcePoint" />
            <mxPoint x="-2252" y="-2144" as="targetPoint" />
            <Array as="points">
              <mxPoint x="-2268" y="-2154" />
              <mxPoint x="-2223" y="-2143" />
            </Array>
            <mxPoint as="offset" />
          </mxGeometry>
        </mxCell>
        <mxCell id="dy52wDB2Z1GQdfB4RwDG-9" value="External Link" style="html=1;verticalAlign=bottom;endArrow=open;dashed=1;endSize=8;edgeStyle=elbowEdgeStyle;elbow=vertical;curved=0;rounded=0;fontSize=13;" parent="1" source="7-6DBGzLnkqcclSVFqGQ-3" target="7-6DBGzLnkqcclSVFqGQ-8" edge="1">
          <mxGeometry relative="1" as="geometry">
            <mxPoint x="-1715" y="-2070" as="sourcePoint" />
            <mxPoint x="-1820" y="-2066" as="targetPoint" />
            <Array as="points">
              <mxPoint x="-1770" y="-2080" />
              <mxPoint x="-1840" y="-2070" />
              <mxPoint x="-1820" y="-2090" />
              <mxPoint x="-1790" y="-2110" />
              <mxPoint x="-1810" y="-2060" />
              <mxPoint x="-1833" y="-2107" />
              <mxPoint x="-1813" y="-2076" />
              <mxPoint x="-1837" y="-2117" />
            </Array>
          </mxGeometry>
        </mxCell>
        <mxCell id="dy52wDB2Z1GQdfB4RwDG-27" value="Display Link" style="html=1;verticalAlign=bottom;endArrow=open;dashed=1;endSize=8;edgeStyle=elbowEdgeStyle;elbow=vertical;curved=0;rounded=0;fontSize=13;" parent="1" source="dy52wDB2Z1GQdfB4RwDG-4" target="dy52wDB2Z1GQdfB4RwDG-1" edge="1">
          <mxGeometry x="0.0016" relative="1" as="geometry">
            <mxPoint x="-2171" y="-1969.5" as="sourcePoint" />
            <mxPoint x="-2338" y="-1969.5" as="targetPoint" />
            <Array as="points">
              <mxPoint x="-2210" y="-1970" />
              <mxPoint x="-2228" y="-1974" />
              <mxPoint x="-2213" y="-1969.5" />
              <mxPoint x="-2183" y="-1989.5" />
              <mxPoint x="-2203" y="-1939.5" />
              <mxPoint x="-2226" y="-1986.5" />
              <mxPoint x="-2206" y="-1955.5" />
              <mxPoint x="-2230" y="-1996.5" />
            </Array>
            <mxPoint as="offset" />
          </mxGeometry>
        </mxCell>
        <mxCell id="dy52wDB2Z1GQdfB4RwDG-28" value="Display Failure" style="html=1;verticalAlign=bottom;endArrow=open;dashed=1;endSize=8;edgeStyle=elbowEdgeStyle;elbow=vertical;curved=0;rounded=0;fontSize=13;" parent="1" source="dy52wDB2Z1GQdfB4RwDG-4" target="dy52wDB2Z1GQdfB4RwDG-1" edge="1">
          <mxGeometry x="0.1045" relative="1" as="geometry">
            <mxPoint x="-2171" y="-1874" as="sourcePoint" />
            <mxPoint x="-2338" y="-1874" as="targetPoint" />
            <Array as="points">
              <mxPoint x="-2200" y="-1820" />
              <mxPoint x="-2240" y="-1790" />
              <mxPoint x="-2220" y="-1840" />
              <mxPoint x="-2220" y="-1760" />
              <mxPoint x="-2178" y="-1884" />
              <mxPoint x="-2203" y="-1844" />
              <mxPoint x="-2226" y="-1891" />
              <mxPoint x="-2206" y="-1860" />
              <mxPoint x="-2230" y="-1901" />
            </Array>
            <mxPoint as="offset" />
          </mxGeometry>
        </mxCell>
        <mxCell id="dy52wDB2Z1GQdfB4RwDG-29" value="&lt;font style=&quot;font-size: 13px;&quot;&gt;getDatabase(databaseID)&lt;/font&gt;" style="html=1;verticalAlign=bottom;endArrow=block;edgeStyle=elbowEdgeStyle;elbow=vertical;curved=0;rounded=0;" parent="1" source="dy52wDB2Z1GQdfB4RwDG-4" edge="1">
          <mxGeometry x="-0.0439" width="80" relative="1" as="geometry">
            <mxPoint x="-2163" y="-2124" as="sourcePoint" />
            <mxPoint x="-1933" y="-2134" as="targetPoint" />
            <Array as="points">
              <mxPoint x="-2088" y="-2134" />
              <mxPoint x="-2046" y="-2124" />
            </Array>
            <mxPoint as="offset" />
          </mxGeometry>
        </mxCell>
        <mxCell id="dy52wDB2Z1GQdfB4RwDG-4" value="" style="html=1;points=[];perimeter=orthogonalPerimeter;outlineConnect=0;targetShapes=umlLifeline;portConstraint=eastwest;newEdgeStyle={&quot;edgeStyle&quot;:&quot;elbowEdgeStyle&quot;,&quot;elbow&quot;:&quot;vertical&quot;,&quot;curved&quot;:0,&quot;rounded&quot;:0};fontSize=16;" parent="1" vertex="1">
          <mxGeometry x="-2148" y="-2180" width="10" height="336" as="geometry" />
        </mxCell>
        <mxCell id="7-6DBGzLnkqcclSVFqGQ-2" value="Repository" style="shape=umlLifeline;perimeter=lifelinePerimeter;whiteSpace=wrap;html=1;container=0;dropTarget=0;collapsible=0;recursiveResize=0;outlineConnect=0;portConstraint=eastwest;newEdgeStyle={&quot;edgeStyle&quot;:&quot;elbowEdgeStyle&quot;,&quot;elbow&quot;:&quot;vertical&quot;,&quot;curved&quot;:0,&quot;rounded&quot;:0};" vertex="1" parent="1">
          <mxGeometry x="-1760" y="-2270" width="130" height="500" as="geometry" />
        </mxCell>
        <mxCell id="7-6DBGzLnkqcclSVFqGQ-3" value="" style="html=1;points=[];perimeter=orthogonalPerimeter;outlineConnect=0;targetShapes=umlLifeline;portConstraint=eastwest;newEdgeStyle={&quot;edgeStyle&quot;:&quot;elbowEdgeStyle&quot;,&quot;elbow&quot;:&quot;vertical&quot;,&quot;curved&quot;:0,&quot;rounded&quot;:0};strokeColor=#3399FF;" vertex="1" parent="7-6DBGzLnkqcclSVFqGQ-2">
          <mxGeometry x="60" y="90" width="10" height="120" as="geometry" />
        </mxCell>
        <mxCell id="7-6DBGzLnkqcclSVFqGQ-4" value="" style="endArrow=classic;html=1;rounded=0;" edge="1" parent="1" target="7-6DBGzLnkqcclSVFqGQ-3">
          <mxGeometry width="50" height="50" relative="1" as="geometry">
            <mxPoint x="-1923" y="-2110" as="sourcePoint" />
            <mxPoint x="-1790" y="-2120" as="targetPoint" />
          </mxGeometry>
        </mxCell>
        <mxCell id="7-6DBGzLnkqcclSVFqGQ-7" value="Library API" style="shape=umlLifeline;perimeter=lifelinePerimeter;whiteSpace=wrap;html=1;container=0;dropTarget=0;collapsible=0;recursiveResize=0;outlineConnect=0;portConstraint=eastwest;newEdgeStyle={&quot;edgeStyle&quot;:&quot;elbowEdgeStyle&quot;,&quot;elbow&quot;:&quot;vertical&quot;,&quot;curved&quot;:0,&quot;rounded&quot;:0};" vertex="1" parent="1">
          <mxGeometry x="-1990" y="-2270" width="130" height="510" as="geometry" />
        </mxCell>
        <mxCell id="7-6DBGzLnkqcclSVFqGQ-8" value="" style="html=1;points=[];perimeter=orthogonalPerimeter;outlineConnect=0;targetShapes=umlLifeline;portConstraint=eastwest;newEdgeStyle={&quot;edgeStyle&quot;:&quot;elbowEdgeStyle&quot;,&quot;elbow&quot;:&quot;vertical&quot;,&quot;curved&quot;:0,&quot;rounded&quot;:0};strokeColor=#3399FF;" vertex="1" parent="7-6DBGzLnkqcclSVFqGQ-7">
          <mxGeometry x="60" y="90" width="10" height="400" as="geometry" />
        </mxCell>
        <mxCell id="7-6DBGzLnkqcclSVFqGQ-9" value="View Database Interface" style="shape=umlLifeline;perimeter=lifelinePerimeter;whiteSpace=wrap;html=1;container=0;dropTarget=0;collapsible=0;recursiveResize=0;outlineConnect=0;portConstraint=eastwest;newEdgeStyle={&quot;edgeStyle&quot;:&quot;elbowEdgeStyle&quot;,&quot;elbow&quot;:&quot;vertical&quot;,&quot;curved&quot;:0,&quot;rounded&quot;:0};" vertex="1" parent="1">
          <mxGeometry x="-2208" y="-2270" width="130" height="510" as="geometry" />
        </mxCell>
        <mxCell id="7-6DBGzLnkqcclSVFqGQ-10" value="" style="html=1;points=[];perimeter=orthogonalPerimeter;outlineConnect=0;targetShapes=umlLifeline;portConstraint=eastwest;newEdgeStyle={&quot;edgeStyle&quot;:&quot;elbowEdgeStyle&quot;,&quot;elbow&quot;:&quot;vertical&quot;,&quot;curved&quot;:0,&quot;rounded&quot;:0};strokeColor=#3399FF;" vertex="1" parent="7-6DBGzLnkqcclSVFqGQ-9">
          <mxGeometry x="60" y="90" width="10" height="400" as="geometry" />
        </mxCell>
        <mxCell id="7-6DBGzLnkqcclSVFqGQ-11" value="getDatabaseLink(databaseID)" style="text;html=1;strokeColor=none;fillColor=none;align=center;verticalAlign=middle;whiteSpace=wrap;rounded=0;fontSize=13;" vertex="1" parent="1">
          <mxGeometry x="-1920" y="-2130" width="200" height="20" as="geometry" />
        </mxCell>
        <mxCell id="7-6DBGzLnkqcclSVFqGQ-13" value="" style="endArrow=classic;html=1;rounded=0;" edge="1" parent="1" source="7-6DBGzLnkqcclSVFqGQ-8" target="7-6DBGzLnkqcclSVFqGQ-10">
          <mxGeometry width="50" height="50" relative="1" as="geometry">
            <mxPoint x="-2100" y="-1960" as="sourcePoint" />
            <mxPoint x="-2050" y="-2010" as="targetPoint" />
            <Array as="points">
              <mxPoint x="-2030" y="-2000" />
            </Array>
          </mxGeometry>
        </mxCell>
        <mxCell id="7-6DBGzLnkqcclSVFqGQ-15" value="" style="endArrow=classic;html=1;rounded=0;" edge="1" parent="1" source="dy52wDB2Z1GQdfB4RwDG-1" target="7-6DBGzLnkqcclSVFqGQ-10">
          <mxGeometry width="50" height="50" relative="1" as="geometry">
            <mxPoint x="-2140" y="-1930" as="sourcePoint" />
            <mxPoint x="-2090" y="-1980" as="targetPoint" />
            <Array as="points">
              <mxPoint x="-2230" y="-1940" />
            </Array>
          </mxGeometry>
        </mxCell>
        <mxCell id="7-6DBGzLnkqcclSVFqGQ-17" value="Redirect User to URL" style="html=1;verticalAlign=bottom;endArrow=open;dashed=1;endSize=8;edgeStyle=elbowEdgeStyle;elbow=vertical;curved=0;rounded=0;fontSize=13;" edge="1" parent="1">
          <mxGeometry x="0.0016" relative="1" as="geometry">
            <mxPoint x="-2148" y="-1910.4" as="sourcePoint" />
            <mxPoint x="-2340" y="-1910.4" as="targetPoint" />
            <Array as="points">
              <mxPoint x="-2228" y="-1910.4" />
              <mxPoint x="-2213" y="-1905.9" />
              <mxPoint x="-2183" y="-1925.9" />
              <mxPoint x="-2203" y="-1875.9" />
              <mxPoint x="-2226" y="-1922.9" />
              <mxPoint x="-2206" y="-1891.9" />
              <mxPoint x="-2230" y="-1932.9" />
            </Array>
            <mxPoint as="offset" />
          </mxGeometry>
        </mxCell>
        <mxCell id="7-6DBGzLnkqcclSVFqGQ-19" value="" style="endArrow=none;dashed=1;html=1;rounded=0;" edge="1" parent="1" source="dy52wDB2Z1GQdfB4RwDG-1">
          <mxGeometry width="50" height="50" relative="1" as="geometry">
            <mxPoint x="-2150" y="-1930" as="sourcePoint" />
            <mxPoint x="-2345" y="-1760" as="targetPoint" />
            <Array as="points" />
          </mxGeometry>
        </mxCell>
        <mxCell id="dy52wDB2Z1GQdfB4RwDG-19" value="&lt;font style=&quot;font-size: 13px;&quot;&gt;alt&lt;/font&gt;" style="shape=umlFrame;whiteSpace=wrap;html=1;pointerEvents=0;recursiveResize=0;container=1;collapsible=0;width=40;height=20;fontSize=13;" parent="1" vertex="1">
          <mxGeometry x="-2400" y="-2060" width="510" height="260" as="geometry" />
        </mxCell>
        <mxCell id="dy52wDB2Z1GQdfB4RwDG-20" value="" style="line;strokeWidth=1;labelPosition=center;verticalLabelPosition=bottom;align=left;verticalAlign=top;spacingLeft=20;spacingTop=15;html=1;whiteSpace=wrap;" parent="dy52wDB2Z1GQdfB4RwDG-19" vertex="1">
          <mxGeometry y="165" width="510" height="10" as="geometry" />
        </mxCell>
        <mxCell id="dy52wDB2Z1GQdfB4RwDG-21" value="[External Link OK]" style="text;html=1;fontSize=13;verticalAlign=middle;" parent="dy52wDB2Z1GQdfB4RwDG-19" vertex="1">
          <mxGeometry width="110" height="20" relative="1" as="geometry">
            <mxPoint x="10" y="20" as="offset" />
          </mxGeometry>
        </mxCell>
        <mxCell id="7-6DBGzLnkqcclSVFqGQ-14" value="returnData(link)" style="text;html=1;strokeColor=none;fillColor=none;align=center;verticalAlign=middle;whiteSpace=wrap;rounded=0;fontSize=13;" vertex="1" parent="dy52wDB2Z1GQdfB4RwDG-19">
          <mxGeometry x="360" y="40" width="100" height="20" as="geometry" />
        </mxCell>
        <mxCell id="7-6DBGzLnkqcclSVFqGQ-16" value="clickLink(url)" style="text;html=1;strokeColor=none;fillColor=none;align=center;verticalAlign=middle;whiteSpace=wrap;rounded=0;fontSize=13;" vertex="1" parent="dy52wDB2Z1GQdfB4RwDG-19">
          <mxGeometry x="80" y="100" width="80" height="20" as="geometry" />
        </mxCell>
        <mxCell id="7-6DBGzLnkqcclSVFqGQ-18" value="[External Link FAIL]" style="text;html=1;strokeColor=none;fillColor=none;align=center;verticalAlign=middle;whiteSpace=wrap;rounded=0;fontSize=13;" vertex="1" parent="dy52wDB2Z1GQdfB4RwDG-19">
          <mxGeometry x="10" y="175" width="120" height="20" as="geometry" />
        </mxCell>
        <mxCell id="7-6DBGzLnkqcclSVFqGQ-20" value="" style="endArrow=classic;html=1;rounded=0;" edge="1" parent="dy52wDB2Z1GQdfB4RwDG-19">
          <mxGeometry width="50" height="50" relative="1" as="geometry">
            <mxPoint x="468" y="215" as="sourcePoint" />
            <mxPoint x="260" y="215" as="targetPoint" />
            <Array as="points">
              <mxPoint x="368" y="215" />
            </Array>
          </mxGeometry>
        </mxCell>
        <mxCell id="7-6DBGzLnkqcclSVFqGQ-21" value="returnData(null)" style="text;html=1;strokeColor=none;fillColor=none;align=center;verticalAlign=middle;whiteSpace=wrap;rounded=0;fontSize=13;" vertex="1" parent="dy52wDB2Z1GQdfB4RwDG-19">
          <mxGeometry x="360" y="195" width="100" height="20" as="geometry" />
        </mxCell>
      </root>
    </mxGraphModel>
  </diagram>
</mxfile>
